<svg width="240" height="64" viewBox="0 0 240 64" fill="none" xmlns="http://www.w3.org/2000/svg">
<path d="M18.624 17.344C20.736 17.344 22.464 17.664 23.808 18.304C25.184 18.912 26.4 19.632 27.456 20.464C28.096 20.944 28.576 21.008 28.896 20.656C29.248 20.272 29.488 19.392 29.616 18.016H30.72C30.656 19.232 30.608 20.72 30.576 22.48C30.544 24.24 30.528 26.56 30.528 29.44H29.424C29.232 28 29.024 26.8 28.8 25.84C28.576 24.848 28.256 24 27.84 23.296C27.456 22.592 26.912 21.92 26.208 21.28C25.344 20.32 24.304 19.616 23.088 19.168C21.904 18.688 20.656 18.448 19.344 18.448C17.68 18.448 16.224 18.896 14.976 19.792C13.76 20.656 12.736 21.856 11.904 23.392C11.104 24.896 10.496 26.656 10.08 28.672C9.696 30.688 9.504 32.832 9.504 35.104C9.504 37.44 9.712 39.616 10.128 41.632C10.576 43.616 11.216 45.36 12.048 46.864C12.912 48.336 13.968 49.488 15.216 50.32C16.496 51.152 17.968 51.568 19.632 51.568C20.816 51.568 22.032 51.344 23.28 50.896C24.528 50.448 25.552 49.76 26.352 48.832C27.408 47.872 28.128 46.736 28.512 45.424C28.896 44.08 29.2 42.304 29.424 40.096H30.528C30.528 43.104 30.544 45.536 30.576 47.392C30.608 49.216 30.656 50.752 30.72 52H29.616C29.488 50.624 29.264 49.76 28.944 49.408C28.656 49.056 28.16 49.104 27.456 49.552C26.272 50.384 25.008 51.12 23.664 51.76C22.352 52.368 20.656 52.672 18.576 52.672C15.312 52.672 12.448 51.984 9.984 50.608C7.52 49.232 5.6 47.248 4.224 44.656C2.88 42.064 2.208 38.944 2.208 35.296C2.208 31.712 2.912 28.576 4.32 25.888C5.728 23.2 7.664 21.104 10.128 19.6C12.592 18.096 15.424 17.344 18.624 17.344ZM48.6814 26.512C51.0814 26.512 52.9694 27.04 54.3454 28.096C55.7534 29.152 56.4574 30.656 56.4574 32.608C56.4574 33.856 56.1374 35.024 55.4974 36.112C54.8894 37.168 54.0894 38.176 53.0974 39.136C52.1054 40.064 51.0334 40.976 49.8814 41.872C48.7614 42.736 47.6574 43.584 46.5694 44.416C45.5134 45.248 44.6014 46.096 43.8334 46.96H54.0574C55.3694 46.96 56.2014 46.8 56.5534 46.48C56.9054 46.128 57.1454 45.536 57.2734 44.704H58.1854C58.1854 46.688 58.2014 48.224 58.2334 49.312C58.2654 50.4 58.3134 51.376 58.3774 52.24C58.0894 52.176 57.5614 52.128 56.7934 52.096C56.0254 52.064 55.1454 52.032 54.1534 52C53.1614 52 52.1854 52 51.2254 52H38.1694V51.088C39.0974 50.128 40.2174 49.072 41.5294 47.92C42.8734 46.736 44.1694 45.44 45.4174 44.032C46.6974 42.624 47.7534 41.088 48.5854 39.424C49.4494 37.76 49.8814 35.952 49.8814 34C49.8814 32.272 49.4814 31.008 48.6814 30.208C47.9134 29.408 46.7774 29.008 45.2734 29.008C43.9614 29.008 42.7614 29.36 41.6734 30.064C40.6174 30.736 39.6734 31.728 38.8414 33.04L38.0734 32.512C38.6814 31.456 39.4334 30.48 40.3294 29.584C41.2574 28.656 42.3934 27.92 43.7374 27.376C45.1134 26.8 46.7614 26.512 48.6814 26.512Z" fill="#E5261F"/>
<path d="M76.072 18.016V18.976C74.984 19.008 74.152 19.136 73.576 19.36C73.032 19.552 72.664 19.936 72.472 20.512C72.28 21.056 72.184 21.92 72.184 23.104V47.104C72.184 48.192 72.264 49.008 72.424 49.552C72.616 50.096 72.968 50.464 73.48 50.656C74.024 50.816 74.792 50.896 75.784 50.896H78.904C80.28 50.896 81.432 50.704 82.36 50.32C83.32 49.936 84.12 49.36 84.76 48.592C85.4 47.824 85.896 46.832 86.248 45.616C86.6 44.4 86.872 42.976 87.064 41.344H88.168C88.072 42.368 88.024 43.712 88.024 45.376C88.024 46.016 88.04 46.96 88.072 48.208C88.136 49.424 88.232 50.688 88.36 52C86.728 51.936 84.888 51.904 82.84 51.904C80.792 51.872 78.968 51.856 77.368 51.856C76.632 51.856 75.688 51.856 74.536 51.856C73.384 51.856 72.136 51.872 70.792 51.904C69.48 51.904 68.136 51.92 66.76 51.952C65.416 51.952 64.12 51.968 62.872 52V51.04C63.96 50.976 64.776 50.848 65.32 50.656C65.864 50.464 66.216 50.08 66.376 49.504C66.568 48.928 66.664 48.064 66.664 46.912V23.104C66.664 21.92 66.568 21.056 66.376 20.512C66.216 19.936 65.848 19.552 65.272 19.36C64.728 19.136 63.928 19.008 62.872 18.976V18.016C63.608 18.048 64.552 18.08 65.704 18.112C66.888 18.144 68.152 18.16 69.496 18.16C70.712 18.16 71.912 18.144 73.096 18.112C74.312 18.08 75.304 18.048 76.072 18.016ZM105.29 26.56C107.434 26.56 109.338 27.008 111.002 27.904C112.666 28.8 113.994 30.208 114.986 32.128C115.978 34.048 116.474 36.56 116.474 39.664C116.474 42.768 115.978 45.28 114.986 47.2C113.994 49.088 112.666 50.48 111.002 51.376C109.338 52.24 107.434 52.672 105.29 52.672C103.178 52.672 101.274 52.24 99.5777 51.376C97.8817 50.48 96.5377 49.088 95.5457 47.2C94.5857 45.28 94.1057 42.768 94.1057 39.664C94.1057 36.56 94.5857 34.048 95.5457 32.128C96.5377 30.208 97.8817 28.8 99.5777 27.904C101.274 27.008 103.178 26.56 105.29 26.56ZM105.29 27.52C103.626 27.52 102.266 28.48 101.21 30.4C100.154 32.288 99.6258 35.376 99.6258 39.664C99.6258 43.952 100.154 47.04 101.21 48.928C102.266 50.784 103.626 51.712 105.29 51.712C106.922 51.712 108.266 50.784 109.322 48.928C110.41 47.04 110.954 43.952 110.954 39.664C110.954 35.376 110.41 32.288 109.322 30.4C108.266 28.48 106.922 27.52 105.29 27.52ZM131.292 61.024C129.5 61.024 127.836 60.848 126.3 60.496C124.796 60.144 123.58 59.6 122.652 58.864C121.756 58.16 121.308 57.248 121.308 56.128C121.308 55.072 121.756 54.144 122.652 53.344C123.548 52.544 124.812 51.936 126.444 51.52L126.78 52.288C126.108 52.576 125.58 53.04 125.196 53.68C124.844 54.32 124.668 55.024 124.668 55.792C124.668 57.2 125.324 58.288 126.636 59.056C127.948 59.824 129.676 60.208 131.82 60.208C133.26 60.208 134.62 60.016 135.9 59.632C137.212 59.28 138.268 58.688 139.068 57.856C139.9 57.024 140.316 55.952 140.316 54.64C140.316 53.616 139.948 52.752 139.212 52.048C138.476 51.376 137.02 51.04 134.844 51.04H131.484C130.364 51.04 129.324 50.944 128.364 50.752C127.404 50.56 126.62 50.192 126.012 49.648C125.436 49.072 125.148 48.272 125.148 47.248C125.148 46.096 125.628 45.008 126.588 43.984C127.548 42.96 129.164 41.952 131.436 40.96L132.012 41.392C131.084 41.904 130.252 42.432 129.516 42.976C128.812 43.488 128.46 44.128 128.46 44.896C128.46 45.92 129.196 46.432 130.668 46.432H136.38C137.884 46.432 139.244 46.64 140.46 47.056C141.676 47.44 142.652 48.064 143.388 48.928C144.124 49.792 144.492 50.928 144.492 52.336C144.492 53.84 143.996 55.248 143.004 56.56C142.044 57.904 140.588 58.976 138.636 59.776C136.684 60.608 134.236 61.024 131.292 61.024ZM131.58 41.776C129.948 41.776 128.46 41.52 127.116 41.008C125.772 40.464 124.716 39.632 123.948 38.512C123.18 37.392 122.796 35.952 122.796 34.192C122.796 32.432 123.18 30.992 123.948 29.872C124.716 28.72 125.772 27.888 127.116 27.376C128.46 26.832 129.948 26.56 131.58 26.56C133.276 26.56 134.78 26.832 136.092 27.376C137.404 27.888 138.444 28.72 139.212 29.872C139.98 30.992 140.364 32.432 140.364 34.192C140.364 35.952 139.98 37.392 139.212 38.512C138.444 39.632 137.404 40.464 136.092 41.008C134.78 41.52 133.276 41.776 131.58 41.776ZM131.58 40.912C132.7 40.912 133.564 40.432 134.172 39.472C134.78 38.512 135.084 36.752 135.084 34.192C135.084 31.632 134.78 29.872 134.172 28.912C133.564 27.92 132.7 27.424 131.58 27.424C130.524 27.424 129.676 27.92 129.036 28.912C128.396 29.872 128.076 31.632 128.076 34.192C128.076 36.752 128.396 38.512 129.036 39.472C129.676 40.432 130.524 40.912 131.58 40.912ZM138.684 30.592L137.82 30.256C138.268 29.136 139.036 28.16 140.124 27.328C141.212 26.496 142.348 26.08 143.532 26.08C144.428 26.08 145.132 26.336 145.644 26.848C146.188 27.328 146.46 28.016 146.46 28.912C146.46 29.904 146.188 30.608 145.644 31.024C145.132 31.44 144.588 31.648 144.012 31.648C143.5 31.648 143.02 31.472 142.572 31.12C142.156 30.768 141.916 30.224 141.852 29.488C141.788 28.72 142.028 27.744 142.572 26.56L143.1 26.752C141.82 27.264 140.876 27.808 140.268 28.384C139.692 28.928 139.164 29.664 138.684 30.592Z" fill="black"/>
</svg>
