<svg width="53" height="54" viewBox="0 0 53 54" fill="none" xmlns="http://www.w3.org/2000/svg">
<path d="M17.904 19.672C18.96 19.672 19.824 19.832 20.496 20.152C21.184 20.456 21.792 20.816 22.32 21.232C22.64 21.472 22.88 21.504 23.04 21.328C23.216 21.136 23.336 20.696 23.4 20.008H23.952C23.92 20.6 23.896 21.32 23.88 22.168C23.864 23.016 23.856 24.136 23.856 25.528H23.304C23.192 24.84 23.088 24.296 22.992 23.896C22.896 23.48 22.776 23.128 22.632 22.84C22.504 22.552 22.328 22.264 22.104 21.976C21.608 21.32 20.984 20.848 20.232 20.56C19.48 20.256 18.688 20.104 17.856 20.104C17.072 20.104 16.36 20.304 15.72 20.704C15.096 21.088 14.552 21.648 14.088 22.384C13.64 23.12 13.288 24.008 13.032 25.048C12.792 26.088 12.672 27.256 12.672 28.552C12.672 29.896 12.808 31.088 13.08 32.128C13.352 33.152 13.728 34.016 14.208 34.72C14.704 35.424 15.28 35.96 15.936 36.328C16.608 36.68 17.328 36.856 18.096 36.856C18.816 36.856 19.568 36.712 20.352 36.424C21.136 36.136 21.752 35.672 22.2 35.032C22.552 34.568 22.792 34.064 22.92 33.52C23.064 32.976 23.192 32.216 23.304 31.24H23.856C23.856 32.696 23.864 33.872 23.88 34.768C23.896 35.648 23.92 36.392 23.952 37H23.4C23.336 36.312 23.224 35.88 23.064 35.704C22.92 35.528 22.672 35.552 22.32 35.776C21.728 36.192 21.096 36.56 20.424 36.88C19.768 37.184 18.92 37.336 17.88 37.336C16.36 37.336 15.024 36.992 13.872 36.304C12.736 35.616 11.848 34.624 11.208 33.328C10.584 32.032 10.272 30.472 10.272 28.648C10.272 26.856 10.6 25.288 11.256 23.944C11.912 22.6 12.808 21.552 13.944 20.8C15.096 20.048 16.416 19.672 17.904 19.672ZM31.3794 24.304C32.4834 24.304 33.3554 24.568 33.9954 25.096C34.6514 25.608 34.9794 26.352 34.9794 27.328C34.9794 27.968 34.8274 28.576 34.5234 29.152C34.2354 29.712 33.8514 30.256 33.3714 30.784C32.8914 31.296 32.3794 31.8 31.8354 32.296C31.2914 32.776 30.7634 33.256 30.2514 33.736C29.7394 34.2 29.3074 34.672 28.9554 35.152H33.8274C34.4834 35.152 34.8994 35.064 35.0754 34.888C35.2514 34.696 35.3714 34.376 35.4354 33.928H35.8434C35.8434 34.776 35.8514 35.432 35.8674 35.896C35.8834 36.344 35.9074 36.752 35.9394 37.12C35.7954 37.088 35.5314 37.064 35.1474 37.048C34.7634 37.032 34.3234 37.016 33.8274 37C33.3314 37 32.8434 37 32.3634 37H26.7474V36.592C27.2274 36.064 27.8034 35.504 28.4754 34.912C29.1474 34.304 29.7954 33.648 30.4194 32.944C31.0594 32.224 31.5874 31.448 32.0034 30.616C32.4354 29.768 32.6514 28.848 32.6514 27.856C32.6514 26.944 32.4354 26.288 32.0034 25.888C31.5874 25.472 31.0034 25.264 30.2514 25.264C29.6114 25.264 29.0194 25.456 28.4754 25.84C27.9314 26.208 27.4514 26.768 27.0354 27.52L26.6514 27.304C26.8914 26.792 27.2114 26.312 27.6114 25.864C28.0274 25.4 28.5394 25.024 29.1474 24.736C29.7714 24.448 30.5154 24.304 31.3794 24.304ZM40.0318 34.264C40.4478 34.264 40.8078 34.416 41.1118 34.72C41.4158 35.024 41.5678 35.384 41.5678 35.8C41.5678 36.216 41.4158 36.576 41.1118 36.88C40.8078 37.184 40.4478 37.336 40.0318 37.336C39.6158 37.336 39.2558 37.184 38.9518 36.88C38.6478 36.576 38.4958 36.216 38.4958 35.8C38.4958 35.384 38.6478 35.024 38.9518 34.72C39.2558 34.416 39.6158 34.264 40.0318 34.264Z" fill="#E5261F"/>
<rect x="0.5" y="0.5" width="52" height="53" stroke="#E5261F"/>
</svg>
