<svg width="32" height="32" viewBox="0 0 32 32" fill="none" xmlns="http://www.w3.org/2000/svg">
<rect width="32" height="32" fill="#E5261F"/>
<path d="M10.528 8.672C11.584 8.672 12.448 8.832 13.12 9.152C13.808 9.456 14.416 9.816 14.944 10.232C15.264 10.472 15.504 10.504 15.664 10.328C15.84 10.136 15.96 9.696 16.024 9.008H16.576C16.544 9.632 16.52 10.392 16.504 11.288C16.488 12.168 16.48 13.344 16.48 14.816H15.928C15.848 14.08 15.744 13.456 15.616 12.944C15.488 12.416 15.312 11.952 15.088 11.552C14.864 11.152 14.544 10.792 14.128 10.472C13.728 10.072 13.264 9.776 12.736 9.584C12.208 9.392 11.656 9.296 11.08 9.296C10.216 9.296 9.48 9.528 8.872 9.992C8.264 10.44 7.768 11.056 7.384 11.84C7.016 12.624 6.744 13.512 6.568 14.504C6.392 15.48 6.304 16.496 6.304 17.552C6.304 18.624 6.392 19.656 6.568 20.648C6.76 21.624 7.048 22.496 7.432 23.264C7.832 24.032 8.344 24.64 8.968 25.088C9.592 25.536 10.328 25.76 11.176 25.76C11.704 25.76 12.232 25.664 12.76 25.472C13.304 25.264 13.768 24.968 14.152 24.584C14.776 24.104 15.2 23.512 15.424 22.808C15.648 22.088 15.816 21.136 15.928 19.952H16.48C16.48 21.472 16.488 22.704 16.504 23.648C16.52 24.576 16.544 25.36 16.576 26H16.024C15.96 25.312 15.848 24.88 15.688 24.704C15.544 24.528 15.296 24.552 14.944 24.776C14.352 25.192 13.72 25.56 13.048 25.88C12.392 26.184 11.544 26.336 10.504 26.336C8.808 26.336 7.32 25.992 6.04 25.304C4.776 24.616 3.792 23.624 3.088 22.328C2.384 21.032 2.032 19.472 2.032 17.648C2.032 15.856 2.392 14.288 3.112 12.944C3.848 11.6 4.848 10.552 6.112 9.8C7.392 9.048 8.864 8.672 10.528 8.672ZM24.5219 13.256C25.7539 13.256 26.7299 13.52 27.4499 14.048C28.1699 14.576 28.5299 15.328 28.5299 16.304C28.5299 16.928 28.3699 17.496 28.0499 18.008C27.7459 18.52 27.3379 19.008 26.8259 19.472C26.3139 19.92 25.7619 20.344 25.1699 20.744C24.5939 21.144 24.0339 21.544 23.4899 21.944C22.9459 22.328 22.4819 22.728 22.0979 23.144H27.2819C27.9379 23.144 28.3539 23.064 28.5299 22.904C28.7059 22.744 28.8259 22.464 28.8899 22.064H29.3939C29.3939 23.136 29.4019 23.968 29.4179 24.56C29.4339 25.152 29.4579 25.672 29.4899 26.12C29.3459 26.088 29.0819 26.064 28.6979 26.048C28.3139 26.032 27.8739 26.016 27.3779 26C26.8819 26 26.3939 26 25.9139 26H18.9299V25.544C19.3779 25.064 19.9299 24.536 20.5859 23.96C21.2419 23.384 21.8819 22.744 22.5059 22.04C23.1459 21.336 23.6819 20.576 24.1139 19.76C24.5459 18.928 24.7619 18.04 24.7619 17.096C24.7619 16.232 24.5699 15.608 24.1859 15.224C23.8019 14.84 23.2499 14.648 22.5299 14.648C21.8419 14.648 21.2339 14.808 20.7059 15.128C20.1939 15.432 19.7299 15.888 19.3139 16.496L18.9059 16.256C19.2259 15.712 19.6259 15.216 20.1059 14.768C20.6019 14.304 21.2099 13.936 21.9299 13.664C22.6499 13.392 23.5139 13.256 24.5219 13.256Z" fill="white"/>
</svg>
